<svg xmlns="http://www.w3.org/2000/svg" version="1.1" xmlns:xlink="http://www.w3.org/1999/xlink" viewBox="0 0 200 200"><rect width="200" height="200" fill="url('#gradient')"></rect><defs><linearGradient id="gradient" gradientTransform="rotate(0 0.5 0.5)"><stop offset="0%" stop-color="#dee90b"></stop><stop offset="100%" stop-color="#d9e241"></stop></linearGradient></defs><g><g fill="#1b3855" transform="matrix(2.2419266557197592,0,0,2.2419266557197592,-2.4037104341327478,112.15116444375258)" stroke="#0e5278" stroke-width="0"><path d="M1.07-14.22L5.58-14.22L8.75-4.33L11.91-14.22L16.43-14.22L16.43 0L12.99 0L12.99-3.32L13.32-10.12L9.88 0L7.62 0L4.17-10.13L4.50-3.32L4.50 0L1.07 0L1.07-14.22ZM23.56 0.20L23.56 0.20Q21.13 0.20 19.63-1.25Q18.13-2.71 18.13-5.03L18.13-5.03L18.13-5.30Q18.13-6.92 18.73-8.16Q19.33-9.40 20.48-10.08Q21.63-10.76 23.21-10.76L23.21-10.76Q25.44-10.76 26.73-9.38Q28.02-8.00 28.02-5.53L28.02-5.53L28.02-4.25L21.47-4.25Q21.65-3.36 22.25-2.85Q22.84-2.34 23.79-2.34L23.79-2.34Q25.35-2.34 26.23-3.44L26.23-3.44L27.73-1.66Q27.12-0.81 25.99-0.31Q24.86 0.20 23.56 0.20ZM23.19-8.22L23.19-8.22Q21.75-8.22 21.47-6.31L21.47-6.31L24.79-6.31L24.79-6.56Q24.81-7.35 24.39-7.79Q23.97-8.22 23.19-8.22ZM33.81-2.34L33.81-2.34Q34.50-2.34 34.88-2.72Q35.26-3.10 35.25-3.77L35.25-3.77L38.34-3.77Q38.34-2.03 37.09-0.92Q35.85 0.20 33.89 0.20L33.89 0.20Q31.58 0.20 30.25-1.25Q28.93-2.70 28.93-5.25L28.93-5.25L28.93-5.39Q28.93-6.99 29.52-8.22Q30.11-9.44 31.22-10.10Q32.33-10.76 33.86-10.76L33.86-10.76Q35.92-10.76 37.13-9.62Q38.34-8.48 38.34-6.52L38.34-6.52L35.25-6.52Q35.25-7.34 34.85-7.78Q34.45-8.22 33.78-8.22L33.78-8.22Q32.50-8.22 32.29-6.59L32.29-6.59Q32.22-6.07 32.22-5.17L32.22-5.17Q32.22-3.57 32.60-2.96Q32.98-2.34 33.81-2.34ZM42.95-15L42.95-9.43Q44.00-10.76 45.64-10.76L45.64-10.76Q47.39-10.76 48.28-9.73Q49.17-8.69 49.19-6.67L49.19-6.67L49.19 0L45.89 0L45.89-6.59Q45.89-7.43 45.55-7.83Q45.21-8.22 44.38-8.22L44.38-8.22Q43.37-8.22 42.95-7.58L42.95-7.58L42.95 0L39.66 0L39.66-15L42.95-15ZM56.94 0L51.17 0L51.17-14.22L56.28-14.22Q59.02-14.22 60.45-13.21Q61.88-12.21 61.88-10.29L61.88-10.29Q61.88-9.19 61.38-8.41Q60.87-7.63 59.88-7.26L59.88-7.26Q61.00-6.96 61.59-6.16Q62.19-5.36 62.19-4.21L62.19-4.21Q62.19-2.12 60.86-1.07Q59.54-0.02 56.94 0L56.94 0ZM57.00-6.04L54.60-6.04L54.60-2.64L56.85-2.64Q57.77-2.64 58.27-3.06Q58.77-3.49 58.77-4.26L58.77-4.26Q58.77-6.04 57.00-6.04L57.00-6.04ZM54.60-11.57L54.60-8.29L56.39-8.29Q57.51-8.30 57.99-8.70Q58.47-9.10 58.47-9.88L58.47-9.88Q58.47-10.78 57.95-11.18Q57.43-11.57 56.28-11.57L56.28-11.57L54.60-11.57ZM67.39-15L67.39 0L64.09 0L64.09-15L67.39-15ZM69.01-4.82L69.00-5.38Q69.00-6.96 69.62-8.20Q70.23-9.43 71.39-10.10Q72.54-10.76 74.09-10.76L74.09-10.76Q76.46-10.76 77.83-9.29Q79.20-7.82 79.20-5.29L79.20-5.29L79.20-5.18Q79.20-2.71 77.83-1.25Q76.46 0.20 74.11 0.20L74.11 0.20Q71.86 0.20 70.49-1.16Q69.12-2.51 69.01-4.82L69.01-4.82ZM72.30-5.77L72.29-5.18Q72.29-3.71 72.75-3.03Q73.21-2.34 74.11-2.34L74.11-2.34Q75.87-2.34 75.91-5.05L75.91-5.05L75.91-5.38Q75.91-8.22 74.09-8.22L74.09-8.22Q72.44-8.22 72.30-5.77L72.30-5.77ZM80.26-5.24L80.26-5.36Q80.26-6.96 80.79-8.19Q81.32-9.42 82.30-10.09Q83.29-10.76 84.60-10.76L84.60-10.76Q86.25-10.76 87.18-9.65L87.18-9.65L87.29-10.57L90.28-10.57L90.28-0.40Q90.28 1.00 89.63 2.03Q88.98 3.06 87.75 3.61Q86.52 4.16 84.90 4.16L84.90 4.16Q83.74 4.16 82.65 3.72Q81.56 3.28 80.99 2.58L80.99 2.58L82.36 0.64Q83.28 1.73 84.79 1.73L84.79 1.73Q86.97 1.73 86.97-0.52L86.97-0.52L86.97-0.85Q86.03 0.20 84.58 0.20L84.58 0.20Q82.65 0.20 81.46-1.28Q80.26-2.76 80.26-5.24L80.26-5.24ZM83.56-5.16L83.56-5.16Q83.56-3.86 84.05-3.10Q84.54-2.34 85.42-2.34L85.42-2.34Q86.48-2.34 86.97-3.06L86.97-3.06L86.97-7.50Q86.49-8.22 85.44-8.22L85.44-8.22Q84.56-8.22 84.06-7.44Q83.56-6.65 83.56-5.16Z"></path></g></g></svg>